<svg width="16.000000" height="16.000000" viewBox="0 0 16 16" fill="none" xmlns="http://www.w3.org/2000/svg" xmlns:xlink="http://www.w3.org/1999/xlink">
	<desc>
			Created with Pixso.
	</desc>
	<defs>
		<clipPath id="clip6_128">
			<rect id="teenyicons:button-solid" width="16.000000" height="16.000000" fill="white" fill-opacity="0"/>
		</clipPath>
	</defs>
	<rect id="teenyicons:button-solid" width="16.000000" height="16.000000" fill="#FFFFFF" fill-opacity="0"/>
	<g clip-path="url(#clip6_128)">
		<path id="Vector" d="M4.2666 6.4C3.41797 6.4 2.604 6.06286 2.00391 5.46274C1.40381 4.86263 1.06665 4.04869 1.06665 3.2C1.06665 2.35131 1.40381 1.53737 2.00391 0.937258C2.604 0.337142 3.41797 0 4.2666 0L11.7334 0C12.582 0 13.396 0.337142 13.9961 0.937258C14.5962 1.53737 14.9333 2.35131 14.9333 3.2C14.9333 4.04869 14.5962 4.86263 13.9961 5.46274C13.396 6.06286 12.582 6.4 11.7334 6.4L9.6001 6.4L9.6001 3.73333C9.6001 3.02609 9.31909 2.34781 8.81885 1.84772C8.31885 1.34762 7.64062 1.06667 6.93335 1.06667C6.22607 1.06667 5.54785 1.34762 5.04761 1.84772C4.54761 2.34781 4.2666 3.02609 4.2666 3.73333L4.2666 6.4Z" fill="#FFFFFF" fill-opacity="1.000000" fill-rule="nonzero"/>
		<path id="Vector" d="M6.93335 2.13333C6.50903 2.13333 6.10205 2.3019 5.802 2.60196C5.50195 2.90202 5.33325 3.30898 5.33325 3.73333L5.33325 8.58667C4.73096 8.70961 4.1897 9.03689 3.80078 9.51312C3.41211 9.98934 3.19971 10.5852 3.19995 11.2C3.19995 12.473 3.70557 13.6939 4.60596 14.5941C5.5061 15.4943 6.72681 16 8 16L8.5332 16C9.94775 16 11.3044 15.4381 12.3044 14.4379C13.3047 13.4377 13.8667 12.0812 13.8667 10.6667L13.8667 9.7568C13.8667 9.14942 13.6252 8.56691 13.1958 8.13743C12.7664 7.70795 12.1838 7.46666 11.5764 7.46666L8.5332 7.46666L8.5332 3.73333C8.5332 3.30898 8.36475 2.90202 8.0647 2.60196C7.76465 2.3019 7.35767 2.13333 6.93335 2.13333Z" fill="#FFFFFF" fill-opacity="1.000000" fill-rule="nonzero"/>
	</g>
</svg>
